<svg xmlns:rdf="http://www.w3.org/1999/02/22-rdf-syntax-ns#" xmlns="http://www.w3.org/2000/svg" viewBox="0 0 16 16" width="16" version="1.1" xmlns:cc="http://creativecommons.org/ns#" height="16" xmlns:dc="http://purl.org/dc/elements/1.1/">
<metadata>
<rdf:RDF>
<cc:Work rdf:about="">
<dc:format>image/svg+xml</dc:format>
<dc:type rdf:resource="http://purl.org/dc/dcmitype/StillImage"/>
<dc:title/>
</cc:Work>
</rdf:RDF>
</metadata>
<g transform="translate(0 -292.77)">
<rect ry="2" height="14" width="14" y="293.77" x="1" fill="#f60"/>
<text style="word-spacing:0px;letter-spacing:0px" xml:space="preserve" font-size="5.3333px" line-height="1.25" y="300.76666" x="7" font-family="sans-serif" fill="#000000"><tspan y="337.25986" x="7"/></text>
<rect height="2" width="2" y="295.77" x="5" stroke-width="2" fill="#fff"/>
<rect height="2" width="2" y="299.77" x="11" stroke-width="2" fill="#fff"/>
<rect height="2" width="2" y="299.77" x="3" stroke-width="2" fill="#fff"/>
<rect height="2" width="2" y="295.77" x="9" stroke-width="2" fill="#fff"/>
<rect height="2" width="2" y="294.77" x="7" stroke-width="2" fill="#fff"/>
<rect ry="0" height="2" width="2" y="297.77" x="11" stroke-width="2" fill="#fff"/>
<rect height="2" width="2" y="297.77" x="3" stroke-width="2" fill="#fff"/>
<rect height="2" width="2" y="301.77" x="11" stroke-width="2" fill="#fff"/>
<rect height="2" width="2" y="301.77" x="3" stroke-width="2" fill="#fff"/>
<rect height="2" width="2" y="299.77" x="5" stroke-width="2" fill="#fff"/>
<rect height="2" width="2" y="299.77" x="7" stroke-width="2" fill="#fff"/>
<rect height="2" width="2" y="299.77" x="9" stroke-width="2" fill="#fff"/>
<rect height=".99998" width="1" y="305.77" x="2" stroke-width=".99999" fill="#fff"/>
<rect height=".99998" width="1" y="304.77" x="3" stroke-width=".99999" fill="#fff"/>
<rect height=".99998" width="1" y="305.77" x="4" stroke-width=".99999" fill="#fff"/>
<rect height=".99998" width="1" y="304.77" x="5" stroke-width=".99999" fill="#fff"/>
<rect height=".99998" width="1" y="305.77" x="6" stroke-width=".99999" fill="#fff"/>
<rect height=".99998" width="1" y="304.77" x="7" stroke-width=".99999" fill="#fff"/>
<rect height=".99998" width="1" y="305.77" x="8" stroke-width=".99999" fill="#fff"/>
<rect height=".99998" width="1" y="304.77" x="9" stroke-width=".99999" fill="#fff"/>
<rect height=".99998" width="1" y="305.77" x="10" stroke-width=".99999" fill="#fff"/>
<rect height=".99998" width="1" y="304.77" x="11" stroke-width=".99999" fill="#fff"/>
<rect height=".99998" width="1" y="305.77" x="12" stroke-width=".99999" fill="#fff"/>
<rect height=".99998" width="1" y="304.77" x="13" stroke-width=".99999" fill="#fff"/>
<rect height=".99998" width="1" y="304.77" x="10" stroke-width=".99999" fill="#fff"/>
<rect height=".99998" width="1" y="305.77" x="5" stroke-width=".99999" fill="#fff"/>
<rect height=".99998" width="1" y="303.77" x="6" stroke-width=".99999" fill="#fff"/>
<rect height=".99998" width="1" y="303.77" x="8" stroke-width=".99999" fill="#fff"/>
</g>
</svg>
